<svg xmlns="http://www.w3.org/2000/svg" width="960" height="120" viewBox="330 920 960 110" role="img" aria-labelledby="title desc">
  <title id="title">Alessandro Bruno wordmark</title>
  <desc id="desc">Alessandro Bruno wordmark.</desc>
  <path d="m 364.95166,990.35999 h 4.57129 l 4.7832,-13.41114 h 19.52637 l 4.87402,13.41114 h 4.54102 l -16.68067,-45.10743 h -5.08593 z m 10.7168,-17.22559 4.38965,-12.26074 c 0.99902,-2.84571 2.30078,-6.72071 3.93554,-12.13965 1.63477,5.3584 2.90625,9.14258 3.9961,12.13965 l 4.45019,12.26074 z m 50.26855,17.22559 h 25.7627 v -3.84473 h -21.4336 v -41.2627 h -4.3291 z m 49.9961,0 h 26.76171 v -3.84473 h -22.46289 v -16.92285 h 20.64649 v -3.84473 H 480.23193 V 949.09729 H 502.271 v -3.84473 h -26.33789 z m 65.46582,0.75683 c 9.80859,0 15.71191,-5.47949 15.71191,-12.77539 0,-7.44726 -6.47852,-10.44434 -12.29102,-12.10937 l -4.72265,-1.36231 c -4.35938,-1.27148 -8.90039,-3.4209 -8.90039,-8.08301 0,-4.81347 4.29883,-8.29492 10.47461,-8.29492 5.90332,0 10.11132,3.11817 10.62597,8.11328 h 4.20801 c -0.33301,-6.87207 -6.20605,-11.98828 -14.71289,-11.98828 -8.38574,0 -14.80371,5.02539 -14.80371,12.35156 0,5.72168 3.99609,9.41504 11.20117,11.53418 l 5.32813,1.54395 c 5.66113,1.66504 9.38476,3.72363 9.38476,8.23437 0,5.3584 -4.81347,8.93067 -11.5039,8.93067 -5.99414,0 -10.74707,-2.87598 -11.20118,-8.26465 h -4.38964 c 0.48437,7.26562 6.35742,12.16992 15.59082,12.16992 z m 54.17382,0 c 9.8086,0 15.71192,-5.47949 15.71192,-12.77539 0,-7.44726 -6.47852,-10.44434 -12.29102,-12.10937 l -4.72265,-1.36231 c -4.35938,-1.27148 -8.90039,-3.4209 -8.90039,-8.08301 0,-4.81347 4.29882,-8.29492 10.4746,-8.29492 5.90333,0 10.11133,3.11817 10.62598,8.11328 h 4.20801 c -0.33301,-6.87207 -6.20606,-11.98828 -14.71289,-11.98828 -8.38574,0 -14.80371,5.02539 -14.80371,12.35156 0,5.72168 3.99609,9.41504 11.20117,11.53418 l 5.32812,1.54395 c 5.66114,1.66504 9.38477,3.72363 9.38477,8.23437 0,5.3584 -4.81348,8.93067 -11.50391,8.93067 -5.99414,0 -10.74707,-2.87598 -11.20117,-8.26465 h -4.38965 c 0.48438,7.26562 6.35743,12.16992 15.59082,12.16992 z m 36.37305,-0.75683 h 4.57129 l 4.7832,-13.41114 h 19.52637 l 4.87402,13.41114 h 4.54102 l -16.68066,-45.10743 h -5.08594 z m 10.7168,-17.22559 4.38965,-12.26074 c 0.99902,-2.84571 2.30078,-6.72071 3.93554,-12.13965 1.63477,5.3584 2.90625,9.14258 3.9961,12.13965 l 4.45019,12.26074 z m 50.26855,17.22559 h 4.3291 v -28.54786 c 0,-2.42187 -0.18164,-6.44824 -0.36328,-11.29199 3.08789,5.20703 4.9043,8.2041 6.99317,11.32227 l 19.19336,28.51758 h 4.99511 v -45.10743 h -4.29882 v 29.84961 c 0,2.60352 0.0605,6.20606 0.30273,10.1416 -2.05859,-3.78418 -4.14746,-7.08398 -5.63086,-9.35449 L 697.896,945.25256 h -4.96485 z m 75.39551,0 c 13.59277,0 21.34277,-8.47657 21.34277,-22.67481 0,-13.98633 -7.6289,-22.43262 -20.55566,-22.43262 h -14.10742 v 45.10743 z m -9.02148,-3.84473 v -37.41797 h 9.53613 c 10.86816,0 16.65039,6.99316 16.65039,18.58789 0,11.77637 -5.90332,18.83008 -17.40723,18.83008 z m 55.29394,3.84473 h 4.29883 V 972.2262 h 10.44434 c 0.57519,0 1.12011,-0.0303 1.66503,-0.0605 l 9.77832,18.19434 h 4.96485 l -10.35352,-19.042 c 5.57032,-1.84668 8.47657,-6.44824 8.47657,-12.47265 0,-7.96192 -5.0254,-13.59278 -14.56153,-13.59278 h -14.71289 z m 4.29883,-22.00879 v -19.25391 h 10.23242 c 7.02344,0 10.47461,3.84473 10.47461,9.74805 0,5.8125 -3.45117,9.50586 -10.44434,9.50586 z m 67.61523,22.61425 c 11.41309,0 19.52637,-9.02148 19.52637,-23.1289 0,-14.1377 -8.11328,-23.18946 -19.52637,-23.18946 -11.41308,0 -19.58691,9.05176 -19.58691,23.18946 0,14.10742 8.14355,23.1289 19.58691,23.1289 z m 0,-4.02636 c -8.87011,0 -15.40918,-7.14453 -15.40918,-19.10254 0,-12.04883 6.59961,-19.16309 15.40918,-19.16309 8.7793,0 15.34864,7.11426 15.34864,19.16309 0,11.98828 -6.56934,19.10254 -15.34864,19.10254 z m 76.89356,3.4209 h 16.19629 c 9.65722,0 14.16797,-4.99512 14.16797,-11.86719 0,-6.81153 -4.66211,-10.92871 -8.96094,-11.23145 v -0.36328 c 4.08691,-1.05957 7.20508,-4.23828 7.20508,-9.86914 0,-6.75098 -4.4502,-11.77637 -13.25977,-11.77637 h -15.34863 z m 4.29883,-3.84473 v -17.19531 h 11.98828 c 5.99414,0 9.92969,4.05664 9.92969,9.14257 0,4.63184 -3.23926,8.05274 -10.11133,8.05274 z m 0,-20.88867 v -16.5293 h 10.95898 c 6.08496,0 9.20313,3.2998 9.20313,8.02246 0,4.9043 -3.542,8.50684 -8.80957,8.50684 z m 50.96483,24.7334 h 4.2988 V 972.2262 h 10.4444 c 0.5752,0 1.1201,-0.0303 1.665,-0.0605 l 9.7783,18.19434 h 4.9649 l -10.3535,-19.042 c 5.5703,-1.84668 8.4765,-6.44824 8.4765,-12.47265 0,-7.96192 -5.0254,-13.59278 -14.5615,-13.59278 h -14.7129 z m 4.2988,-22.00879 v -19.25391 h 10.2325 c 7.0234,0 10.4746,3.84473 10.4746,9.74805 0,5.8125 -3.4512,9.50586 -10.4444,9.50586 z m 66.8887,22.70507 c 10.1719,0 17.1348,-6.75097 17.1348,-16.01464 v -29.78907 h -4.2989 v 29.48633 c 0,7.11426 -5.0859,12.32129 -12.8359,12.32129 -7.75,0 -12.8662,-5.20703 -12.8662,-12.32129 v -29.48633 h -4.2988 v 29.78907 c 0,9.23339 6.9629,16.01464 17.165,16.01464 z m 43.7598,-0.69628 h 4.3291 v -28.54786 c 0,-2.42187 -0.1817,-6.44824 -0.3633,-11.29199 3.0879,5.20703 4.9043,8.2041 6.9932,11.32227 l 19.1933,28.51758 h 4.9951 v -45.10743 h -4.2988 v 29.84961 c 0,2.60352 0.061,6.20606 0.3027,10.1416 -2.0586,-3.78418 -4.1474,-7.08398 -5.6308,-9.35449 l -20.5557,-30.63672 h -4.9648 z m 79.664,0.60546 c 11.4131,0 19.5264,-9.02148 19.5264,-23.1289 0,-14.1377 -8.1133,-23.18946 -19.5264,-23.18946 -11.413,0 -19.5869,9.05176 -19.5869,23.18946 0,14.10742 8.1436,23.1289 19.5869,23.1289 z m 0,-4.02636 c -8.8701,0 -15.4091,-7.14453 -15.4091,-19.10254 0,-12.04883 6.5996,-19.16309 15.4091,-19.16309 8.7793,0 15.3487,7.11426 15.3487,19.16309 0,11.98828 -6.5694,19.10254 -15.3487,19.10254 z" fill="#1F2937"/>
</svg>